<?xml version="1.0" standalone="no"?>
<!DOCTYPE svg PUBLIC "-//W3C//DTD SVG 20010904//EN"
 "http://www.w3.org/TR/2001/REC-SVG-20010904/DTD/svg10.dtd">
<svg version="1.0" xmlns="http://www.w3.org/2000/svg"
 width="1088.000000pt" height="960.000000pt" viewBox="0 0 1088.000000 960.000000"
 preserveAspectRatio="xMidYMid meet">
<metadata>
Created by potrace 1.16, written by Peter Selinger 2001-2019
</metadata>
<g transform="translate(0.000000,960.000000) scale(0.100000,-0.100000)"
fill="#000000" stroke="none">
<path d="M4690 9420 c0 -6 -47 -10 -120 -10 -73 0 -120 -4 -120 -10 0 -6 -30
-10 -70 -10 -40 0 -70 -4 -70 -10 0 -5 -22 -10 -50 -10 -27 0 -50 -4 -50 -10
0 -5 -20 -10 -45 -10 -25 0 -45 -4 -45 -10 0 -5 -18 -10 -40 -10 -22 0 -40 -4
-40 -10 0 -5 -16 -10 -35 -10 -19 0 -35 -5 -35 -11 0 -8 -14 -10 -40 -6 -31 4
-40 2 -40 -10 0 -12 -8 -14 -35 -9 -28 6 -35 4 -35 -9 0 -13 -6 -15 -30 -10
-24 5 -30 3 -30 -10 0 -14 -6 -16 -29 -12 -21 5 -31 2 -35 -10 -4 -10 -15 -14
-31 -11 -15 3 -26 0 -30 -10 -3 -9 -14 -13 -30 -10 -15 3 -26 0 -30 -10 -3 -8
-13 -12 -24 -9 -12 3 -22 -1 -25 -10 -4 -9 -13 -12 -25 -8 -12 3 -21 0 -25
-11 -4 -11 -13 -14 -31 -10 -19 5 -25 2 -25 -9 0 -11 -6 -14 -24 -9 -16 4 -25
1 -30 -11 -3 -10 -13 -15 -20 -12 -8 3 -17 -1 -20 -9 -4 -10 -13 -13 -26 -9
-11 4 -20 2 -20 -4 0 -6 -11 -11 -24 -11 -13 0 -26 -6 -29 -14 -4 -9 -14 -12
-26 -9 -12 3 -21 1 -21 -6 0 -6 -11 -11 -24 -11 -13 0 -26 -7 -30 -15 -3 -8
-12 -12 -19 -9 -8 3 -17 -2 -20 -10 -4 -9 -13 -13 -20 -10 -8 3 -17 -2 -20
-10 -4 -9 -13 -13 -22 -10 -8 3 -15 1 -15 -5 0 -6 -9 -11 -20 -11 -11 0 -20
-4 -20 -10 0 -5 -9 -10 -20 -10 -11 0 -20 -4 -20 -10 0 -5 -9 -10 -20 -10 -11
0 -20 -4 -20 -10 0 -5 -9 -10 -20 -10 -11 0 -20 -4 -20 -10 0 -5 -9 -10 -20
-10 -11 0 -20 -4 -20 -10 0 -5 -9 -10 -20 -10 -11 0 -20 -4 -20 -10 0 -5 -7
-10 -15 -10 -8 0 -15 -4 -15 -10 0 -5 -9 -10 -20 -10 -11 0 -20 -4 -20 -10 0
-5 -9 -10 -20 -10 -11 0 -20 -4 -20 -10 0 -5 -9 -10 -20 -10 -11 0 -20 -4 -20
-10 0 -5 -9 -10 -20 -10 -11 0 -20 -4 -20 -10 0 -5 -7 -10 -15 -10 -8 0 -15
-4 -15 -10 0 -5 -7 -10 -15 -10 -8 0 -15 -5 -15 -11 0 -6 -9 -9 -20 -6 -13 3
-20 0 -20 -10 0 -11 -7 -14 -23 -9 -19 4 -26 0 -36 -20 -7 -17 -17 -24 -26
-20 -9 3 -15 -1 -15 -10 0 -12 -6 -15 -25 -10 -20 5 -26 2 -31 -19 -5 -19 -11
-24 -25 -20 -13 4 -19 1 -19 -9 0 -8 -13 -17 -30 -21 -17 -4 -30 -13 -30 -22
0 -9 -6 -13 -15 -9 -8 3 -15 1 -15 -5 0 -5 -12 -15 -27 -22 -15 -6 -36 -20
-45 -29 -10 -10 -24 -18 -32 -18 -8 0 -17 -7 -20 -16 -3 -9 -12 -14 -19 -11
-8 3 -22 -6 -32 -19 -12 -16 -24 -22 -36 -19 -12 4 -19 -1 -24 -15 -4 -12 -19
-27 -33 -33 -15 -7 -35 -20 -44 -29 -10 -10 -25 -18 -33 -18 -8 0 -15 -5 -15
-10 0 -6 -12 -16 -27 -23 -16 -6 -34 -20 -41 -29 -7 -10 -20 -18 -28 -18 -8 0
-14 -4 -14 -10 0 -5 -5 -10 -11 -10 -6 0 -24 -13 -39 -30 -15 -16 -38 -30 -49
-30 -12 0 -25 -8 -28 -17 -11 -28 -51 -63 -65 -58 -7 2 -22 -10 -34 -28 -12
-19 -28 -31 -39 -30 -19 1 -45 -19 -45 -35 0 -15 -59 -62 -79 -62 -9 0 -23
-10 -31 -22 -30 -45 -111 -118 -133 -118 -6 0 -23 -14 -37 -31 -45 -55 -138
-149 -147 -149 -5 0 -15 -10 -23 -21 -16 -24 -58 -65 -119 -119 -22 -19 -40
-43 -41 -52 0 -10 -4 -18 -10 -18 -5 0 -10 -5 -10 -12 0 -12 -61 -73 -98 -98
-13 -9 -21 -23 -20 -35 2 -13 -8 -26 -29 -40 -18 -11 -32 -28 -33 -38 0 -10
-13 -32 -29 -48 -17 -16 -33 -38 -36 -49 -3 -11 -17 -28 -30 -38 -13 -11 -22
-22 -18 -26 3 -3 -5 -16 -19 -29 -13 -12 -23 -28 -20 -35 2 -7 -1 -12 -6 -12
-5 0 -20 -22 -33 -50 -13 -27 -30 -50 -37 -50 -9 0 -11 -7 -7 -20 4 -11 2 -20
-4 -20 -6 0 -11 -7 -11 -15 0 -8 -4 -15 -10 -15 -5 0 -10 -7 -10 -15 0 -8 -4
-15 -10 -15 -5 0 -10 -9 -10 -20 0 -11 -4 -20 -10 -20 -5 0 -10 -9 -10 -20 0
-11 -4 -20 -10 -20 -5 0 -10 -9 -10 -20 0 -11 -4 -20 -10 -20 -5 0 -10 -9 -10
-20 0 -11 -4 -20 -10 -20 -5 0 -10 -9 -10 -20 0 -11 -4 -20 -10 -20 -5 0 -10
-13 -10 -30 0 -16 -4 -30 -10 -30 -5 0 -10 -11 -10 -25 0 -14 -4 -25 -10 -25
-5 0 -10 -11 -10 -25 0 -14 -4 -25 -10 -25 -5 0 -10 -13 -10 -30 0 -16 -4 -30
-10 -30 -5 0 -10 -13 -10 -30 0 -16 -4 -30 -8 -30 -4 0 -13 -30 -19 -67 -7
-36 -16 -69 -21 -72 -6 -3 -10 -24 -9 -45 1 -23 -4 -41 -11 -44 -7 -2 -12 -22
-12 -48 0 -24 -4 -44 -10 -44 -6 0 -10 -26 -10 -59 0 -39 -4 -61 -13 -64 -17
-5 -17 -869 1 -875 8 -2 12 -30 12 -83 0 -46 4 -79 10 -79 6 0 10 -24 10 -54
0 -30 5 -58 10 -61 6 -3 10 -26 10 -51 0 -24 5 -44 10 -44 6 0 10 -18 10 -40
0 -22 5 -40 10 -40 6 0 10 -13 10 -30 0 -16 5 -30 10 -30 6 0 10 -18 10 -40 0
-22 5 -40 10 -40 6 0 10 -13 10 -30 0 -16 5 -30 10 -30 6 0 10 -13 10 -30 0
-16 5 -30 10 -30 6 0 10 -13 10 -30 0 -16 5 -30 10 -30 6 0 10 -13 10 -30 0
-16 5 -30 10 -30 6 0 10 -13 10 -30 0 -23 4 -30 20 -30 16 0 20 -7 20 -30 0
-16 5 -30 10 -30 6 0 10 -9 10 -20 0 -11 5 -20 10 -20 6 0 10 -10 10 -22 0
-13 7 -36 15 -52 8 -15 15 -35 15 -42 0 -8 5 -14 10 -14 6 0 10 -9 10 -20 0
-11 5 -20 10 -20 6 0 10 -9 10 -20 0 -11 5 -20 10 -20 6 0 10 -8 10 -18 0 -10
9 -24 20 -32 11 -8 20 -22 20 -32 0 -10 5 -18 10 -18 6 0 10 -8 10 -18 0 -10
9 -24 20 -32 11 -8 20 -22 20 -32 0 -10 5 -18 10 -18 6 0 10 -8 10 -18 0 -10
9 -24 20 -32 11 -8 20 -21 20 -28 0 -8 14 -27 30 -42 17 -15 30 -34 30 -42 0
-7 9 -20 20 -28 11 -8 20 -18 20 -22 0 -12 248 -258 260 -258 5 0 10 -4 10 -8
0 -5 12 -15 27 -23 16 -8 35 -22 44 -31 9 -10 24 -18 33 -18 9 0 16 -4 16 -10
0 -5 9 -10 20 -10 11 0 20 -4 20 -10 0 -5 9 -10 20 -10 11 0 20 -4 20 -10 0
-5 9 -10 20 -10 11 0 20 -4 20 -10 0 -5 9 -10 20 -10 11 0 20 -4 20 -10 0 -5
14 -10 30 -10 17 0 30 -4 30 -10 0 -6 58 -10 155 -10 97 0 155 4 155 10 0 6 9
10 20 10 11 0 20 5 20 10 0 6 9 10 20 10 11 0 20 5 20 10 0 6 9 10 20 10 11 0
20 5 20 10 0 6 9 10 20 10 11 0 20 5 20 10 0 6 7 10 16 10 9 0 29 14 44 30 15
17 34 30 40 30 7 0 21 9 31 21 16 19 20 20 34 6 17 -18 22 -147 5 -147 -6 0
-10 -33 -10 -80 0 -47 -4 -80 -10 -80 -6 0 -10 -31 -10 -74 0 -41 -4 -78 -10
-81 -5 -3 -10 -26 -10 -51 0 -24 -4 -44 -10 -44 -6 0 -10 -43 -10 -110 0 -67
-4 -110 -10 -110 -6 0 -10 -48 -10 -125 0 -77 -4 -125 -10 -125 -6 0 -10 -95
-10 -265 0 -170 4 -265 10 -265 6 0 10 -37 10 -90 0 -53 4 -90 10 -90 6 0 10
-27 10 -60 0 -33 4 -60 10 -60 6 0 10 -27 10 -60 0 -33 4 -60 10 -60 6 0 10
-18 10 -40 0 -22 5 -40 10 -40 6 0 10 -13 10 -30 0 -16 5 -30 10 -30 6 0 10
-16 10 -35 0 -19 5 -35 10 -35 6 0 10 -9 10 -20 0 -11 5 -20 10 -20 6 0 10
-13 10 -30 0 -16 5 -30 10 -30 6 0 10 -9 10 -20 0 -11 5 -20 10 -20 6 0 10 -9
10 -20 0 -11 5 -20 10 -20 6 0 10 -8 10 -18 0 -10 9 -24 20 -32 11 -8 20 -20
20 -28 0 -14 44 -62 58 -62 10 0 52 -47 52 -58 0 -10 93 -102 103 -102 4 0 23
-15 41 -33 18 -18 47 -39 64 -46 18 -8 32 -17 32 -22 0 -5 9 -9 20 -9 11 0 20
-4 20 -10 0 -5 9 -10 20 -10 11 0 20 -4 20 -10 0 -5 9 -10 20 -10 11 0 20 -4
20 -10 0 -5 14 -10 30 -10 17 0 30 -4 30 -10 0 -5 14 -10 30 -10 17 0 30 -4
30 -10 0 -5 14 -10 30 -10 17 0 30 -4 30 -10 0 -5 16 -10 35 -10 19 0 35 -4
35 -10 0 -5 23 -10 50 -10 28 0 50 -4 50 -10 0 -6 47 -10 120 -10 73 0 120 -4
120 -10 0 -13 167 -13 175 0 3 6 52 10 111 10 63 0 104 4 104 10 0 6 23 10 50
10 28 0 50 5 50 10 0 6 23 10 50 10 28 0 50 5 50 10 0 6 15 10 34 10 19 0 38
4 41 10 3 5 19 10 36 10 16 0 29 5 29 10 0 6 14 10 30 10 17 0 30 5 30 10 0 6
11 10 25 10 14 0 25 5 25 10 0 6 9 10 20 10 11 0 20 5 20 10 0 6 9 10 20 10
11 0 20 4 20 9 0 5 18 12 40 16 22 4 40 11 40 16 0 5 9 9 20 9 11 0 20 5 20
10 0 6 9 10 20 10 11 0 20 5 20 10 0 6 8 10 18 10 10 0 24 9 32 20 8 11 21 20
30 20 9 0 22 9 30 20 8 11 20 20 28 20 7 0 43 31 80 68 37 37 75 71 84 74 9 4
24 23 33 42 10 20 21 36 26 36 5 0 9 9 9 20 0 11 5 20 10 20 6 0 10 9 10 20 0
11 5 20 10 20 6 0 10 9 10 20 0 11 5 20 10 20 6 0 10 9 10 20 0 11 5 20 10 20
6 0 10 9 10 20 0 11 5 20 10 20 6 0 10 9 10 20 0 11 5 20 10 20 6 0 10 7 10
15 0 8 5 15 10 15 6 0 10 9 10 19 0 11 4 23 10 26 6 3 10 17 10 31 0 13 5 24
10 24 6 0 10 9 10 20 0 11 5 20 10 20 6 0 10 14 10 30 0 17 5 30 10 30 6 0 10
9 10 20 0 11 5 20 10 20 6 0 10 14 10 30 0 17 5 30 10 30 6 0 10 14 10 30 0
17 5 30 10 30 6 0 10 9 10 20 0 11 5 20 10 20 6 0 10 14 10 30 0 17 5 30 10
30 6 0 10 14 10 30 0 17 5 30 10 30 6 0 10 25 10 55 0 30 5 55 10 55 6 0 10
14 10 30 0 17 5 30 10 30 6 0 10 9 10 20 0 11 5 20 10 20 6 0 10 9 10 19 0 11
4 23 10 26 6 3 10 17 10 31 0 13 5 24 10 24 6 0 10 14 10 30 0 17 5 30 10 30
6 0 10 9 10 19 0 11 4 23 10 26 6 3 10 17 10 31 0 13 5 24 10 24 6 0 10 14 10
30 0 17 5 30 10 30 6 0 10 14 10 30 0 17 4 30 9 30 5 0 12 15 16 33 7 28 9 29
12 9 3 -12 9 -22 14 -22 5 0 9 -9 9 -19 0 -11 7 -26 15 -35 8 -8 15 -22 15
-30 0 -9 5 -16 10 -16 6 0 10 -9 10 -20 0 -11 5 -20 10 -20 6 0 10 -6 10 -13
0 -7 9 -23 20 -35 11 -12 20 -28 20 -37 0 -8 5 -15 10 -15 6 0 10 -8 10 -18 0
-10 9 -24 20 -32 11 -8 20 -21 20 -28 0 -8 13 -27 30 -42 16 -15 30 -33 30
-38 0 -6 31 -41 70 -79 110 -108 139 -133 150 -133 7 0 29 -18 50 -40 21 -22
45 -40 52 -40 7 0 20 -9 28 -20 8 -11 19 -20 25 -20 6 0 17 -9 25 -20 8 -11
21 -20 30 -20 9 0 22 -9 30 -20 8 -11 22 -20 32 -20 10 0 18 -4 18 -10 0 -5 9
-10 20 -10 11 0 20 -4 20 -10 0 -5 9 -10 20 -10 11 0 20 -4 20 -10 0 -5 9 -10
20 -10 11 0 20 -4 20 -10 0 -5 9 -10 20 -10 11 0 20 -4 20 -10 0 -5 9 -10 20
-10 11 0 20 -4 20 -10 0 -5 14 -10 30 -10 17 0 30 -4 30 -10 0 -5 9 -10 20
-10 11 0 20 -4 20 -10 0 -5 14 -10 30 -10 17 0 30 -4 30 -10 0 -5 14 -10 30
-10 17 0 30 -4 30 -10 0 -5 14 -10 30 -10 17 0 30 -4 30 -10 0 -5 16 -10 35
-10 19 0 35 -4 35 -10 0 -5 18 -10 40 -10 22 0 40 -4 40 -10 0 -14 317 -14
325 0 3 6 19 10 35 10 16 0 32 5 35 10 3 6 17 10 31 10 13 0 24 5 24 10 0 6 9
10 20 10 11 0 20 5 20 10 0 6 8 10 18 10 10 0 24 9 32 20 8 11 22 20 32 20 10
0 18 5 18 10 0 6 7 10 15 10 18 0 225 204 225 223 0 7 9 19 20 27 11 8 20 22
20 32 0 10 5 18 10 18 6 0 10 9 10 20 0 11 5 20 10 20 6 0 10 9 10 20 0 11 4
20 8 20 5 0 14 16 22 35 8 19 17 35 22 35 4 0 8 6 8 13 0 6 16 45 35 84 19 40
35 82 35 93 0 11 5 20 10 20 6 0 10 5 10 11 0 6 6 17 14 24 12 12 15 12 20 -1
3 -9 6 -29 6 -44 0 -16 5 -32 10 -35 6 -3 10 -24 10 -46 0 -21 5 -39 10 -39 6
0 10 -18 10 -39 0 -22 5 -43 10 -46 6 -3 10 -19 10 -36 0 -16 5 -29 10 -29 6
0 10 -22 10 -50 0 -27 5 -50 10 -50 6 0 10 -13 10 -30 0 -16 5 -30 10 -30 6 0
10 -18 10 -40 0 -22 5 -40 10 -40 6 0 10 -13 10 -30 0 -16 5 -30 10 -30 6 0
10 -13 10 -30 0 -16 5 -30 10 -30 6 0 10 -13 10 -30 0 -16 5 -30 10 -30 6 0
10 -13 10 -30 0 -16 5 -30 10 -30 6 0 10 -9 10 -20 0 -11 5 -20 10 -20 6 0 10
-9 10 -20 0 -11 5 -20 10 -20 6 0 10 -11 10 -25 0 -14 5 -25 10 -25 6 0 10 -9
10 -20 0 -11 5 -20 10 -20 6 0 10 -9 10 -20 0 -11 5 -20 10 -20 6 0 10 -8 10
-18 0 -10 9 -24 20 -32 11 -8 20 -21 20 -30 0 -9 9 -22 20 -30 11 -8 20 -21
20 -28 0 -8 13 -27 30 -42 16 -15 30 -33 30 -39 0 -6 19 -31 43 -55 23 -24 68
-72 101 -105 32 -34 63 -61 68 -61 5 0 19 -9 31 -20 32 -30 96 -70 110 -70 7
0 19 -9 27 -20 8 -11 22 -20 32 -20 10 0 18 -4 18 -10 0 -5 9 -10 20 -10 11 0
20 -4 20 -10 0 -5 9 -10 20 -10 11 0 20 -4 20 -10 0 -5 14 -10 30 -10 17 0 30
-4 30 -10 0 -5 14 -10 30 -10 17 0 30 -4 30 -10 0 -5 14 -10 30 -10 17 0 30
-4 30 -10 0 -5 11 -10 25 -10 14 0 25 -4 25 -10 0 -5 18 -10 40 -10 22 0 40
-4 40 -10 0 -6 30 -10 70 -10 40 0 70 -4 70 -10 0 -6 55 -10 145 -10 90 0 145
4 145 10 0 6 33 10 80 10 47 0 80 4 80 10 0 6 18 10 40 10 22 0 40 5 40 10 0
6 18 10 40 10 22 0 40 5 40 10 0 6 14 10 30 10 17 0 30 5 30 10 0 6 14 10 30
10 17 0 30 5 30 10 0 6 14 10 30 10 17 0 30 5 30 10 0 6 14 10 30 10 17 0 30
5 30 10 0 6 9 10 20 10 11 0 20 5 20 10 0 6 7 10 15 10 8 0 15 5 15 10 0 6 9
10 20 10 11 0 20 5 20 10 0 6 7 10 15 10 20 0 119 49 123 61 2 5 11 9 21 9 9
0 23 9 31 20 8 11 22 20 32 20 10 0 18 5 18 10 0 6 7 10 16 10 9 0 29 14 44
30 15 17 33 30 40 30 6 0 29 18 50 40 22 23 48 40 60 40 21 0 90 63 90 82 0 5
11 21 25 36 14 15 25 34 25 42 0 9 9 22 20 30 11 8 20 19 20 25 0 17 24 65 33
65 4 0 7 9 7 20 0 11 5 20 10 20 6 0 10 11 10 25 0 14 5 25 10 25 6 0 10 14
10 30 0 17 5 30 10 30 6 0 10 18 10 40 0 22 5 40 10 40 6 0 10 20 10 45 0 25
5 45 10 45 6 0 10 60 10 160 0 100 -4 160 -10 160 -5 0 -10 18 -10 40 0 22 -4
40 -10 40 -5 0 -10 11 -10 25 0 14 -4 25 -10 25 -5 0 -10 9 -10 20 0 11 -4 20
-10 20 -5 0 -10 9 -10 20 0 11 -4 20 -10 20 -5 0 -10 9 -10 20 0 11 -4 20 -10
20 -5 0 -10 9 -10 20 0 11 -4 20 -10 20 -5 0 -10 9 -10 20 0 11 -4 20 -10 20
-5 0 -10 9 -10 20 0 11 -4 20 -10 20 -5 0 -10 11 -10 25 0 14 -5 25 -11 25 -7
0 -9 10 -7 25 4 17 1 25 -9 25 -11 0 -13 7 -9 25 5 19 2 25 -10 25 -12 0 -15
6 -10 25 5 19 2 25 -10 25 -13 0 -15 6 -10 30 4 22 2 30 -9 30 -11 0 -13 8 -8
30 4 23 2 30 -9 30 -11 0 -14 7 -10 26 3 18 0 30 -11 36 -12 6 -15 17 -11 37
4 21 1 30 -11 35 -13 4 -15 13 -10 36 4 20 2 35 -9 45 -10 11 -13 26 -9 51 5
28 2 39 -10 46 -14 7 -16 19 -10 68 4 46 2 62 -10 74 -13 13 -14 33 -10 112 5
71 3 98 -6 104 -18 11 -19 929 -2 940 9 5 12 42 9 134 -2 97 0 129 10 135 10
6 13 34 10 110 -2 79 0 104 11 110 11 7 13 26 9 80 -4 57 -2 73 10 80 12 7 14
21 9 74 -5 55 -3 68 10 75 13 8 15 20 10 61 -5 42 -3 53 10 58 12 5 14 16 9
55 -6 40 -4 49 10 55 13 5 15 15 10 50 -4 35 -2 45 10 50 13 5 15 15 10 50 -4
34 -2 45 10 50 12 4 13 15 8 49 -5 38 -4 44 11 44 15 0 17 6 11 40 -5 32 -3
40 9 40 13 0 15 8 9 45 -4 30 -3 45 5 45 6 0 11 19 11 45 0 25 5 45 10 45 6 0
10 20 10 45 0 25 5 45 10 45 6 0 10 18 10 40 0 22 5 40 10 40 6 0 10 18 10 40
0 22 5 40 10 40 6 0 10 20 10 45 0 25 5 45 10 45 6 0 10 18 10 40 0 22 5 40
10 40 6 0 10 20 10 45 0 25 5 45 10 45 6 0 10 20 10 45 0 25 5 45 10 45 6 0
10 23 10 50 0 28 5 50 10 50 6 0 10 23 10 50 0 28 5 50 10 50 6 0 10 23 10 50
0 28 5 50 10 50 6 0 10 25 10 55 0 30 5 55 10 55 6 0 10 27 10 60 0 33 4 60
10 60 6 0 10 30 10 70 0 40 4 70 10 70 6 0 10 72 10 195 0 123 -4 195 -10 195
-6 0 -10 27 -10 60 0 33 -4 60 -10 60 -5 0 -10 18 -10 40 0 22 -4 40 -10 40
-6 0 -10 27 -10 60 0 33 -4 60 -10 60 -5 0 -10 25 -10 55 0 30 -4 55 -10 55
-5 0 -10 18 -10 40 0 22 -4 40 -10 40 -5 0 -10 16 -10 35 0 19 -4 35 -10 35
-5 0 -10 11 -10 25 0 14 -4 25 -10 25 -5 0 -10 11 -10 25 0 14 -4 25 -10 25
-5 0 -10 9 -10 20 0 11 -4 20 -10 20 -5 0 -10 9 -10 20 0 11 -4 20 -10 20 -5
0 -10 7 -10 15 0 8 -4 15 -10 15 -5 0 -10 7 -10 15 0 8 -4 15 -10 15 -5 0 -10
6 -10 13 0 7 -9 19 -20 27 -11 8 -20 25 -20 37 0 12 -11 33 -25 45 -53 47 -60
55 -75 76 -9 14 -21 20 -32 16 -21 -6 -42 12 -52 44 -5 16 -13 21 -25 17 -10
-3 -26 4 -39 15 -11 11 -25 20 -29 20 -5 0 -15 9 -23 20 -8 11 -25 20 -37 20
-13 0 -23 5 -23 10 0 6 -9 10 -20 10 -11 0 -20 5 -20 10 0 6 -7 10 -15 10 -8
0 -15 5 -15 10 0 6 -9 10 -20 10 -11 0 -20 5 -20 10 0 6 -9 10 -20 10 -11 0
-20 5 -20 10 0 6 -9 10 -20 10 -11 0 -20 5 -20 10 0 6 -11 10 -25 10 -14 0
-25 5 -25 10 0 6 -9 10 -20 10 -11 0 -20 5 -20 10 0 6 -11 10 -25 10 -14 0
-25 5 -25 10 0 6 -13 10 -30 10 -16 0 -30 5 -30 10 0 6 -13 10 -30 10 -16 0
-30 5 -30 10 0 6 -13 10 -30 10 -16 0 -30 5 -30 10 0 6 -20 10 -45 10 -27 0
-45 5 -45 11 0 8 -14 10 -40 6 -26 -3 -45 -1 -53 8 -9 9 -39 12 -92 12 -54 -1
-80 2 -83 11 -5 17 -139 17 -145 0 -2 -9 -22 -12 -57 -11 -32 1 -58 -4 -66
-12 -7 -7 -24 -10 -38 -8 -16 3 -26 1 -26 -6 0 -6 -11 -11 -25 -11 -14 0 -25
-4 -25 -10 0 -5 -11 -10 -25 -10 -14 0 -25 -4 -25 -10 0 -5 -9 -10 -20 -10
-11 0 -20 -4 -20 -10 0 -5 -9 -10 -20 -10 -11 0 -20 -4 -20 -10 0 -5 -7 -10
-15 -10 -8 0 -15 -4 -15 -8 0 -5 -12 -15 -27 -23 -16 -8 -37 -22 -47 -31 -11
-10 -24 -18 -28 -18 -5 0 -19 -10 -32 -22 -39 -38 -66 -58 -76 -58 -6 0 -26
-16 -46 -35 -19 -19 -39 -35 -44 -35 -6 0 -10 -7 -10 -15 0 -8 -4 -15 -9 -15
-18 0 -88 -75 -94 -101 -4 -15 -28 -49 -55 -76 -26 -26 -58 -63 -70 -81 l-23
-32 -25 29 c-13 16 -24 34 -24 40 0 6 -14 24 -31 40 -22 21 -29 35 -24 50 4
14 0 21 -17 26 -32 11 -105 83 -112 111 -5 19 -11 24 -26 19 -12 -4 -20 -2
-20 4 0 6 -5 11 -11 11 -13 0 -69 58 -69 71 0 5 -10 9 -21 9 -21 0 -59 34 -59
52 0 4 -10 8 -23 8 -12 0 -29 9 -37 20 -8 11 -20 20 -27 20 -7 0 -21 8 -31 18
-9 9 -29 22 -44 29 -14 6 -29 21 -33 32 -3 12 -13 21 -22 21 -9 0 -24 9 -34
21 -10 11 -23 18 -28 14 -6 -3 -21 5 -33 18 -13 13 -29 22 -35 20 -7 -3 -13 2
-13 11 0 9 -5 16 -12 16 -21 0 -87 35 -88 47 0 6 -9 9 -20 6 -14 -4 -20 0 -20
10 0 10 -6 13 -20 10 -14 -4 -20 0 -20 10 0 10 -6 13 -20 10 -14 -4 -20 0 -20
10 0 10 -6 13 -20 10 -14 -4 -20 0 -20 10 0 10 -6 13 -20 10 -12 -3 -22 1 -26
11 -4 11 -13 14 -30 10 -18 -5 -24 -2 -24 11 0 13 -6 15 -30 10 -24 -5 -30 -3
-30 10 0 14 -7 16 -40 10 -30 -5 -40 -3 -40 7 0 11 -34 13 -175 13 -142 0
-175 -3 -175 -14 0 -10 -10 -12 -40 -7 -33 5 -40 3 -40 -10 0 -13 -6 -15 -30
-10 -23 4 -30 2 -30 -10 0 -12 -7 -15 -24 -12 -16 3 -27 0 -31 -10 -3 -8 -12
-12 -19 -9 -8 3 -17 -1 -20 -10 -4 -8 -13 -13 -20 -10 -8 3 -17 -1 -20 -9 -3
-9 -11 -14 -18 -12 -7 3 -23 -7 -35 -20 -13 -14 -26 -22 -29 -19 -4 4 -16 -5
-26 -19 -11 -14 -25 -23 -30 -22 -10 4 -56 -35 -145 -125 -34 -34 -55 -49 -62
-42 -13 13 -41 125 -41 164 0 17 -4 31 -10 31 -5 0 -10 18 -10 40 0 22 -4 40
-10 40 -5 0 -10 20 -10 45 0 25 -4 45 -10 45 -5 0 -10 16 -10 35 0 19 -4 35
-10 35 -5 0 -10 11 -10 25 0 14 -4 25 -10 25 -5 0 -10 11 -10 25 0 14 -4 25
-10 25 -5 0 -10 9 -10 20 0 11 -4 20 -10 20 -5 0 -10 9 -10 20 0 11 -4 20 -10
20 -5 0 -10 7 -10 15 0 8 -4 15 -10 15 -5 0 -10 7 -10 15 0 8 -4 15 -10 15 -5
0 -10 7 -10 15 0 8 -5 15 -11 15 -6 0 -8 7 -5 16 5 14 -14 44 -29 44 -3 0 -16
10 -29 23 -13 12 -33 28 -44 36 -11 8 -23 25 -27 39 -4 18 -11 23 -25 19 -18
-5 -70 35 -70 53 0 5 -9 6 -20 3 -14 -4 -20 0 -20 10 0 10 -6 13 -20 10 -11
-3 -20 0 -20 6 0 6 -7 11 -15 11 -8 0 -15 5 -15 10 0 6 -9 10 -20 10 -11 0
-20 5 -20 10 0 6 -11 10 -25 10 -14 0 -25 5 -25 10 0 6 -13 10 -30 10 -16 0
-30 5 -30 10 0 6 -13 10 -30 10 -16 0 -30 5 -30 10 0 6 -18 10 -40 10 -22 0
-40 5 -40 10 0 6 -43 10 -110 10 -67 0 -110 4 -110 10 0 6 -37 10 -90 10 -53
0 -90 -4 -90 -10z m295 -505 c38 -8 101 -30 140 -49 182 -87 268 -212 295
-429 31 -242 -39 -561 -285 -1302 -40 -121 -110 -335 -155 -475 -45 -140 -93
-289 -107 -330 -26 -79 -59 -184 -73 -235 -22 -78 -73 -257 -91 -320 -11 -38
-33 -117 -49 -175 -16 -58 -38 -136 -50 -175 -12 -38 -39 -137 -60 -220 -22
-82 -46 -172 -55 -200 -8 -27 -18 -81 -21 -120 l-6 -70 22 40 c13 22 51 105
85 185 65 149 151 333 234 500 57 115 191 371 201 385 4 6 35 64 70 130 35 66
66 125 70 130 4 6 19 30 32 55 44 78 130 225 138 235 4 6 17 26 28 45 10 19
42 72 71 118 28 46 51 85 51 88 0 12 373 570 467 699 176 240 398 512 511 629
90 93 162 127 280 134 182 10 315 -51 687 -312 116 -81 185 -137 274 -221 128
-121 161 -200 161 -382 0 -157 -44 -426 -111 -683 -27 -102 -38 -142 -69 -255
-5 -16 -18 -61 -30 -100 -20 -65 -28 -93 -64 -227 -47 -173 -57 -212 -54 -227
2 -9 24 25 48 74 102 207 330 592 466 790 270 392 282 409 473 655 186 239
177 228 290 345 136 141 239 233 286 257 54 28 130 48 185 48 184 0 557 -131
763 -268 129 -86 214 -203 248 -342 18 -70 18 -396 0 -495 -6 -38 -16 -97 -22
-130 -21 -120 -50 -247 -134 -590 -106 -431 -155 -658 -194 -890 -7 -38 -23
-119 -36 -180 -34 -162 -44 -216 -61 -355 -72 -593 -84 -749 -90 -1135 -17
-983 118 -1710 376 -2039 50 -64 52 -68 39 -93 -47 -89 -249 -248 -428 -338
-228 -114 -422 -164 -632 -165 -148 0 -339 61 -449 144 -76 57 -206 195 -256
271 -112 172 -210 473 -244 750 -75 613 -62 1271 41 1995 29 208 101 668 119
765 12 61 25 133 30 160 8 47 28 144 50 243 23 97 32 139 40 177 5 22 22 96
39 165 106 439 106 440 92 440 -9 0 -59 -96 -139 -270 -16 -36 -51 -110 -77
-165 -62 -132 -90 -196 -130 -295 -15 -36 -35 -83 -45 -105 -10 -22 -32 -74
-48 -115 -17 -41 -57 -136 -90 -210 -32 -74 -75 -173 -95 -220 -20 -47 -59
-139 -87 -205 -28 -66 -71 -172 -96 -235 -26 -63 -55 -134 -65 -157 -10 -24
-19 -47 -19 -53 0 -6 -4 -18 -9 -28 -22 -41 -372 -921 -451 -1132 -15 -41 -56
-147 -90 -235 -34 -88 -75 -194 -90 -235 -114 -305 -176 -437 -225 -477 -50
-42 -115 -56 -184 -43 -256 52 -416 113 -581 223 -104 69 -275 243 -343 347
-116 179 -169 307 -218 520 -32 143 -33 149 -32 385 0 228 9 329 42 510 5 28
14 79 21 115 6 36 17 92 25 125 7 33 23 105 36 160 73 335 263 1031 389 1430
17 55 43 138 57 185 13 47 42 137 63 200 49 146 54 170 38 170 -25 0 -192
-282 -355 -600 -182 -354 -334 -691 -482 -1070 -40 -102 -86 -219 -103 -260
-117 -288 -303 -767 -358 -925 -16 -44 -42 -116 -58 -160 -52 -138 -123 -328
-142 -380 -10 -27 -33 -90 -50 -140 -30 -85 -43 -123 -89 -247 -11 -29 -41
-118 -66 -198 -84 -261 -241 -717 -278 -807 -30 -73 -85 -159 -125 -194 -118
-106 -349 -216 -552 -263 -123 -29 -327 -41 -467 -27 -352 34 -532 188 -605
516 -18 83 -18 744 0 910 36 331 61 506 113 793 5 28 13 76 18 105 104 572
244 1188 401 1757 5 19 19 69 30 110 11 41 25 91 30 110 5 19 28 100 50 180
46 167 58 206 139 465 32 105 75 244 95 310 20 66 66 206 102 310 36 105 90
262 120 350 30 88 69 195 86 237 17 43 28 81 24 85 -11 11 -199 -187 -355
-371 -69 -82 -165 -196 -213 -253 -241 -285 -619 -851 -845 -1263 -165 -302
-241 -454 -328 -655 -23 -55 -61 -140 -84 -189 -22 -48 -41 -89 -41 -91 0 -2
-15 -36 -34 -77 -54 -117 -86 -188 -86 -193 0 -2 -12 -30 -26 -62 -14 -32 -32
-71 -39 -88 -98 -221 -109 -235 -188 -235 -40 0 -58 7 -108 41 -143 97 -263
244 -422 519 -141 242 -213 467 -277 855 -25 150 -31 447 -12 555 7 36 17 92
23 125 18 106 68 293 110 420 34 100 142 313 216 425 347 525 1051 1127 1858
1588 124 70 530 276 625 316 25 11 68 29 95 42 288 130 683 249 967 293 73 11
144 22 158 24 70 11 330 6 395 -8z"/>
</g>
</svg>
